<svg width="209" height="45" viewBox="0 0 209 45" fill="none" xmlns="http://www.w3.org/2000/svg">
<path d="M60.264 40.4265C57.59 40.4265 55.672 38.5225 55.672 35.0225C55.672 31.6205 57.618 29.6745 60.166 29.6745C62.126 29.6745 63.344 30.5285 64.058 32.0685L62.574 32.9505C62.168 31.9845 61.412 31.2845 60.166 31.2845C58.402 31.2845 57.422 32.7405 57.422 35.0085C57.422 37.4025 58.458 38.8585 60.264 38.8585C61.552 38.8585 62.392 38.0885 62.798 36.9265L64.31 37.6125C63.694 39.3205 62.434 40.4265 60.264 40.4265ZM67.6275 40.2305H65.9055V32.8105H67.4875L67.6275 34.0145H67.6415C68.0895 33.3145 68.8735 32.6565 70.2595 32.6565H70.3295L70.4835 34.2385C70.3715 34.2105 70.1475 34.2105 70.0355 34.2105C68.9015 34.2105 68.1035 34.7285 67.6275 35.5265V40.2305ZM74.5258 40.3845C72.6078 40.3845 70.8858 39.2505 70.8858 36.5205C70.8858 33.7345 72.8878 32.6565 74.4278 32.6565C76.0378 32.6565 77.6898 33.6505 77.6898 36.6745V37.0805H72.6078C72.6638 38.3825 73.5038 39.0125 74.6238 39.0125C75.5478 39.0125 76.3458 38.6205 76.9198 38.0605L77.6058 39.1945C76.7658 39.9925 75.7998 40.3845 74.5258 40.3845ZM72.6218 35.8065H76.1078C76.0238 34.7145 75.4498 34.0565 74.4138 34.0565C73.5598 34.0565 72.7898 34.6165 72.6218 35.8065ZM81.3665 39.0125C82.2485 39.0125 82.9485 38.6905 83.4805 38.1585V36.5205C81.0865 36.8565 80.3165 37.3745 80.3165 38.1165C80.3165 38.7045 80.7225 39.0125 81.3665 39.0125ZM80.7505 40.3425C79.5325 40.3425 78.6365 39.6145 78.6365 38.3965C78.6365 36.7585 80.0085 35.7505 83.4805 35.3585V35.1345C83.4805 34.4485 83.0745 34.0705 82.1925 34.0705C81.2265 34.0705 80.4845 34.4905 79.7985 35.0645L78.8605 34.0145C79.6445 33.2865 80.7085 32.6565 82.4165 32.6565C84.3345 32.6565 85.1605 33.6085 85.1605 35.3445V40.2305H83.6205L83.4805 39.2785C82.7665 40.0065 81.8565 40.3425 80.7505 40.3425ZM89.8705 40.3285C88.3025 40.3285 87.5885 39.7965 87.5885 38.1865V34.1685H86.3285V32.8105H87.5885V30.3325L89.2965 30.0805V32.8105H91.2145V34.1685H89.2965V37.9205C89.2965 38.7185 89.6325 38.9705 90.3325 38.9705C90.6125 38.9705 90.8785 38.9145 91.0885 38.8585L91.2285 40.2165C91.0185 40.2585 90.3325 40.3285 89.8705 40.3285ZM93.5716 31.7045C92.9416 31.7045 92.5916 31.3125 92.5916 30.7945C92.5916 30.2765 92.9416 29.8845 93.5716 29.8845C94.2156 29.8845 94.5796 30.2765 94.5796 30.7945C94.5796 31.3125 94.2156 31.7045 93.5716 31.7045ZM94.4396 40.2305H92.7316V32.8105H94.4396V40.2305ZM98.1841 40.2305H96.4621V32.8105H98.0441L98.1841 33.8605C98.7301 33.2445 99.6261 32.6565 100.858 32.6565C102.202 32.6565 103.042 33.3565 103.042 34.8265V40.2305H101.334V35.3305C101.334 34.5045 100.998 34.0845 100.2 34.0845C99.4581 34.0845 98.8281 34.4625 98.1841 35.0505V40.2305ZM107.74 36.7725C108.678 36.7725 109.238 36.2825 109.238 35.3725C109.238 34.4485 108.706 33.9445 107.726 33.9445C106.774 33.9445 106.214 34.4625 106.214 35.3725C106.214 36.2825 106.788 36.7725 107.74 36.7725ZM107.698 43.1145C105.136 43.1145 104.114 42.3725 104.114 41.2945C104.114 40.5525 104.576 40.0205 105.332 39.7265C104.954 39.5305 104.758 39.2225 104.758 38.8165C104.758 38.2565 105.206 37.7945 105.766 37.4585C105.01 36.9825 104.59 36.2265 104.59 35.3165C104.59 33.7905 105.766 32.6565 107.712 32.6565C108.734 32.6565 109.49 32.9925 109.994 33.4405C110.442 33.0765 111.114 32.7685 111.688 32.7125L111.912 34.0985C111.562 34.0985 111.058 34.1405 110.54 34.3085C110.708 34.5745 110.806 34.9245 110.806 35.3165C110.806 36.8705 109.644 37.9625 107.712 37.9625C107.292 37.9625 107.04 37.9065 106.676 37.8085C106.452 37.9345 106.298 38.0885 106.298 38.2845C106.298 38.5785 106.494 38.6765 107.152 38.7325L108.468 38.8165C110.666 38.9565 111.534 39.5445 111.534 40.8465C111.534 42.3725 109.994 43.1145 107.698 43.1145ZM107.964 41.8685C109.224 41.8685 110.008 41.5325 110.008 41.0005C110.008 40.4685 109.63 40.2725 108.118 40.1745L106.83 40.0905C106.676 40.0905 106.536 40.0765 106.382 40.0485C105.892 40.2725 105.696 40.6225 105.696 41.0005C105.696 41.6585 106.452 41.8685 107.964 41.8685ZM121.119 40.4265C118.613 40.4265 116.443 38.5365 116.443 35.0505C116.443 31.5645 118.613 29.6745 121.119 29.6745C123.611 29.6745 125.781 31.5645 125.781 35.0505C125.781 38.5365 123.611 40.4265 121.119 40.4265ZM121.119 38.8585C122.869 38.8585 124.045 37.4025 124.045 35.0505C124.045 32.6985 122.869 31.2845 121.119 31.2845C119.369 31.2845 118.193 32.6985 118.193 35.0505C118.193 37.4025 119.369 38.8585 121.119 38.8585ZM130.848 38.9845C131.912 38.9845 132.598 38.2425 132.598 36.5205C132.598 34.9805 131.926 34.1265 130.82 34.1265C130.106 34.1265 129.532 34.5185 129.014 35.0505V38.0885C129.616 38.6765 130.134 38.9845 130.848 38.9845ZM129.014 42.9045L127.292 43.1565V32.8105H128.874L129.014 33.7765C129.518 33.1605 130.274 32.6565 131.38 32.6565C133.074 32.6565 134.32 33.9305 134.32 36.5065C134.32 39.0825 133.06 40.3425 131.352 40.3425C130.344 40.3425 129.574 40.0345 129.014 39.4185V42.9045ZM139.407 38.9845C140.471 38.9845 141.157 38.2425 141.157 36.5205C141.157 34.9805 140.485 34.1265 139.379 34.1265C138.665 34.1265 138.091 34.5185 137.573 35.0505V38.0885C138.175 38.6765 138.693 38.9845 139.407 38.9845ZM137.573 42.9045L135.851 43.1565V32.8105H137.433L137.573 33.7765C138.077 33.1605 138.833 32.6565 139.939 32.6565C141.633 32.6565 142.879 33.9305 142.879 36.5065C142.879 39.0825 141.619 40.3425 139.911 40.3425C138.903 40.3425 138.133 40.0345 137.573 39.4185V42.9045ZM147.615 40.3845C145.809 40.3845 143.989 39.2365 143.989 36.5205C143.989 33.7905 145.795 32.6565 147.615 32.6565C149.421 32.6565 151.227 33.7905 151.227 36.5205C151.227 39.2365 149.421 40.3845 147.615 40.3845ZM147.615 38.9425C148.861 38.9425 149.519 37.9485 149.519 36.5345C149.519 35.1625 148.917 34.1265 147.615 34.1265C146.369 34.1265 145.711 35.0645 145.711 36.5345C145.711 37.9485 146.285 38.9425 147.615 38.9425ZM154.471 40.2305H152.749V32.8105H154.331L154.471 34.0145H154.485C154.933 33.3145 155.717 32.6565 157.103 32.6565H157.173L157.327 34.2385C157.215 34.2105 156.991 34.2105 156.879 34.2105C155.745 34.2105 154.947 34.7285 154.471 35.5265V40.2305ZM161.347 40.3285C159.779 40.3285 159.065 39.7965 159.065 38.1865V34.1685H157.805V32.8105H159.065V30.3325L160.773 30.0805V32.8105H162.691V34.1685H160.773V37.9205C160.773 38.7185 161.109 38.9705 161.809 38.9705C162.089 38.9705 162.355 38.9145 162.565 38.8585L162.705 40.2165C162.495 40.2585 161.809 40.3285 161.347 40.3285ZM166.252 40.3845C164.894 40.3845 164.054 39.6845 164.054 38.2145V32.8105H165.776V37.7525C165.776 38.5365 166.098 38.9285 166.896 38.9285C167.638 38.9285 168.268 38.5365 168.912 37.9485V32.8105H170.634V40.2305H169.052L168.912 39.1945C168.366 39.7825 167.47 40.3845 166.252 40.3845ZM174.282 40.2305H172.56V32.8105H174.142L174.282 33.8605C174.828 33.2445 175.724 32.6565 176.956 32.6565C178.3 32.6565 179.14 33.3565 179.14 34.8265V40.2305H177.432V35.3305C177.432 34.5045 177.096 34.0845 176.298 34.0845C175.556 34.0845 174.926 34.4625 174.282 35.0505V40.2305ZM181.919 31.7045C181.289 31.7045 180.939 31.3125 180.939 30.7945C180.939 30.2765 181.289 29.8845 181.919 29.8845C182.563 29.8845 182.927 30.2765 182.927 30.7945C182.927 31.3125 182.563 31.7045 181.919 31.7045ZM182.787 40.2305H181.079V32.8105H182.787V40.2305ZM187.652 40.3285C186.084 40.3285 185.37 39.7965 185.37 38.1865V34.1685H184.11V32.8105H185.37V30.3325L187.078 30.0805V32.8105H188.996V34.1685H187.078V37.9205C187.078 38.7185 187.414 38.9705 188.114 38.9705C188.394 38.9705 188.66 38.9145 188.87 38.8585L189.01 40.2165C188.8 40.2585 188.114 40.3285 187.652 40.3285ZM191.353 31.7045C190.723 31.7045 190.373 31.3125 190.373 30.7945C190.373 30.2765 190.723 29.8845 191.353 29.8845C191.997 29.8845 192.361 30.2765 192.361 30.7945C192.361 31.3125 191.997 31.7045 191.353 31.7045ZM192.221 40.2305H190.513V32.8105H192.221V40.2305ZM197.463 40.3845C195.545 40.3845 193.823 39.2505 193.823 36.5205C193.823 33.7345 195.825 32.6565 197.365 32.6565C198.975 32.6565 200.627 33.6505 200.627 36.6745V37.0805H195.545C195.601 38.3825 196.441 39.0125 197.561 39.0125C198.485 39.0125 199.283 38.6205 199.857 38.0605L200.543 39.1945C199.703 39.9925 198.737 40.3845 197.463 40.3845ZM195.559 35.8065H199.045C198.961 34.7145 198.387 34.0565 197.351 34.0565C196.497 34.0565 195.727 34.6165 195.559 35.8065ZM204.711 40.3705C203.283 40.3705 202.219 39.8385 201.505 39.2085L202.163 38.0465C202.835 38.6205 203.759 39.0545 204.725 39.0545C205.649 39.0545 206.209 38.7605 206.209 38.2425C206.209 37.6405 205.775 37.4305 204.543 37.1785C202.975 36.8565 201.771 36.4365 201.771 34.8405C201.771 33.5245 202.863 32.6565 204.501 32.6565C205.831 32.6565 206.727 33.0345 207.511 33.5945L206.909 34.8125C206.209 34.3085 205.425 34.0145 204.627 34.0145C203.787 34.0145 203.381 34.3225 203.381 34.7705C203.381 35.2605 203.787 35.4845 204.893 35.7225C206.559 36.0585 207.833 36.4505 207.833 38.0185C207.833 39.6425 206.419 40.3705 204.711 40.3705Z" fill="#02A5A5"/>
<path d="M55.8996 2.80827L49.0944 15.7639C48.952 16.0486 48.5249 16.0486 48.3825 15.7639L41.5631 2.80827C41.4919 2.68014 41.3637 2.59473 41.2071 2.59473H37.9184C37.6906 2.59473 37.5483 2.83675 37.6622 3.03607L48.3968 23.1101C48.5392 23.3806 48.9378 23.3806 49.0944 23.1101L59.829 3.03607C59.9287 2.83675 59.7863 2.59473 59.5728 2.59473H56.2698C56.1274 2.59473 55.9851 2.68014 55.9139 2.80827" fill="#072146"/>
<path d="M59.746 20.5047L66.5513 7.54912C66.6936 7.26438 67.1207 7.26438 67.2631 7.54912L74.0826 20.5047C74.1538 20.6328 74.2819 20.7183 74.4385 20.7183H77.7272C77.955 20.7183 78.0974 20.4762 77.9835 20.2769L67.2489 0.202876C67.1065 -0.0676253 66.7079 -0.0676253 66.5513 0.202876L55.8166 20.2769C55.717 20.4762 55.8594 20.7183 56.0729 20.7183H59.3759C59.5182 20.7183 59.6606 20.6328 59.7318 20.5047" fill="#072146"/>
<path d="M10.2631 20.9065H3.94397C3.72404 20.9065 3.53344 20.7305 3.53344 20.4959V14.8219C3.53344 14.602 3.70938 14.4114 3.94397 14.4114H10.2631C13.2687 14.4114 14.6176 15.2618 14.6176 17.6516C14.6176 20.0414 13.298 20.8918 10.2631 20.8918M3.94397 5.7464H10.1751C12.477 5.7464 13.6499 6.72873 13.6499 8.54677C13.6499 10.3648 12.477 11.3471 10.1751 11.3471H3.94397C3.72404 11.3471 3.53344 11.1712 3.53344 10.9366V6.15693C3.53344 5.937 3.70938 5.7464 3.94397 5.7464ZM14.7935 12.5054C16.2597 11.7723 17.1687 10.1889 17.1687 8.23889C17.1687 4.91071 14.5736 2.65283 10.9229 2.65283H0.410522C0.190599 2.65283 0 2.82877 0 3.06335V23.5896C0 23.8095 0.175937 24.0001 0.410522 24.0001H10.4537C15.4826 24.0001 18.1364 21.8302 18.1364 17.593C18.1364 13.3558 14.7935 12.5054 14.7935 12.5054Z" fill="#072146"/>
<path d="M30.372 20.8484H24.0529C23.8329 20.8484 23.6423 20.6724 23.6423 20.4378V14.7638C23.6423 14.5439 23.8183 14.3533 24.0529 14.3533H30.372C33.3776 14.3533 34.7265 15.2036 34.7265 17.5935C34.7265 19.9833 33.4069 20.8337 30.372 20.8337M24.0529 5.6883H30.284C32.5859 5.6883 33.7588 6.67063 33.7588 8.48866C33.7588 10.3067 32.5859 11.289 30.284 11.289H24.0529C23.8329 11.289 23.6423 11.1131 23.6423 10.8785V6.09882C23.6423 5.87889 23.8183 5.6883 24.0529 5.6883ZM34.9024 12.4473C36.3686 11.7142 37.2776 10.1308 37.2776 8.18078C37.2776 4.8526 34.6825 2.59473 31.0318 2.59473H20.5194C20.2995 2.59473 20.1089 2.77066 20.1089 3.00525V23.5314C20.1089 23.7514 20.2848 23.942 20.5194 23.942H30.5626C35.5915 23.942 38.2453 21.7721 38.2453 17.5349C38.2453 13.2977 34.9024 12.4473 34.9024 12.4473Z" fill="#072146"/>
</svg>
