<svg width="81" height="24" viewBox="0 0 81 24" fill="none" xmlns="http://www.w3.org/2000/svg">
<g clip-path="url(#clip0_57_2985)">
<path d="M57.6907 3.25703L50.8031 16.3649C50.6562 16.6452 50.2291 16.6452 50.0823 16.3649L43.1946 3.25703C43.1279 3.12355 42.9944 3.04346 42.8476 3.04346H39.5105C39.2836 3.04346 39.1368 3.28372 39.2436 3.48395L50.0956 23.7999C50.2424 24.0802 50.6429 24.0802 50.8031 23.7999L61.6551 3.48395C61.7619 3.28372 61.6151 3.04346 61.3882 3.04346H58.0511C57.8909 3.04346 57.7575 3.12355 57.6907 3.25703Z" fill="white"/>
<path d="M61.6018 20.7565L68.4894 7.64858C68.6362 7.36827 69.0634 7.36827 69.2102 7.64858L76.0979 20.7565C76.1646 20.89 76.2981 20.9701 76.4449 20.9701H79.782C80.0089 20.9701 80.1557 20.7298 80.0489 20.5296L69.1969 0.213652C69.05 -0.0666599 68.6496 -0.0666599 68.4894 0.213652L57.6374 20.5296C57.5306 20.7298 57.6774 20.9701 57.9043 20.9701H61.2414C61.3882 20.9567 61.535 20.8766 61.6018 20.7565Z" fill="white"/>
<path d="M14.5228 12.7074C15.9644 11.9866 16.8587 10.4249 16.8587 8.51612C16.8587 5.24582 14.3092 3.03003 10.7186 3.03003H0.400445C0.173526 3.03003 0 3.20356 0 3.43047V23.5996C0 23.8265 0.173526 24 0.400445 24H10.2781C15.2169 24 17.8198 21.8776 17.8198 17.713C17.8198 13.6552 14.5228 12.7074 14.5228 12.7074ZM3.87097 6.07341H9.99778C12.2536 6.07341 13.4016 7.03448 13.4016 8.82313C13.4016 10.6118 12.2536 11.5729 9.99778 11.5729H3.87097C3.6574 11.5729 3.47052 11.3993 3.47052 11.1724V6.47386C3.47052 6.24694 3.64405 6.07341 3.87097 6.07341ZM10.0779 20.9566H3.87097C3.64405 20.9566 3.47052 20.7831 3.47052 20.5562V14.99C3.47052 14.7764 3.64405 14.5895 3.87097 14.5895H10.0779C13.0412 14.5895 14.3626 15.4305 14.3626 17.7664C14.3493 20.129 13.0679 20.9566 10.0779 20.9566Z" fill="white"/>
<path d="M35.7063 12.7074C37.1479 11.9866 38.0422 10.4249 38.0422 8.51612C38.0422 5.24582 35.4927 3.03003 31.9021 3.03003H21.5706C21.3437 3.03003 21.1702 3.20356 21.1702 3.43047V23.5996C21.1702 23.8265 21.3437 24 21.5706 24H31.4483C36.3871 24 38.99 21.8776 38.99 17.713C39.0033 13.6552 35.7063 12.7074 35.7063 12.7074ZM25.0545 6.07341H31.1813C33.4371 6.07341 34.5851 7.03448 34.5851 8.82313C34.5851 10.6118 33.4371 11.5729 31.1813 11.5729H25.0545C24.8276 11.5729 24.654 11.3993 24.654 11.1724V6.47386C24.654 6.24694 24.8276 6.07341 25.0545 6.07341ZM31.248 20.9566H25.0411C24.8276 20.9566 24.6407 20.7831 24.6407 20.5562V14.99C24.6407 14.7764 24.8142 14.5895 25.0411 14.5895H31.248C34.2113 14.5895 35.5328 15.4305 35.5328 17.7664C35.5328 20.129 34.238 20.9566 31.248 20.9566Z" fill="white"/>
</g>
<defs>
<clipPath id="clip0_57_2985">
<rect width="80.089" height="24" fill="white"/>
</clipPath>
</defs>
</svg>
