<svg width="24" height="24" viewBox="0 0 24 24" fill="none" xmlns="http://www.w3.org/2000/svg">
<path fill-rule="evenodd" clip-rule="evenodd" d="M0 14C0 9.86 2.51 6.31 6.09 4.79L15.41 0.58C16.2 0.21 17.07 0 18 0C21.31 0 24 2.69 24 6C24 6.93 23.79 7.81 23.42 8.59L19.21 17.91C17.69 21.49 14.14 24 10 24C4.48 24 0 19.52 0 14ZM16.24 2.41C16.82 2.13 17.39 2 18 2C20.21 2 22 3.79 22 6C22 6.6 21.87 7.18 21.61 7.72L17.38 17.08C16.11 20.09 13.22 22 10 22C5.59 22 2 18.41 2 14C2 10.78 3.92 7.89 6.88 6.63L16.24 2.41Z" fill="#072146"/>
<path fill-rule="evenodd" clip-rule="evenodd" d="M16 14C16 17.3137 13.3137 20 10 20C6.68629 20 4 17.3137 4 14C4 10.6863 6.68629 8 10 8C13.3137 8 16 10.6863 16 14ZM12 14C12 15.1046 11.1046 16 10 16C8.89543 16 8 15.1046 8 14C8 12.8954 8.89543 12 10 12C11.1046 12 12 12.8954 12 14Z" fill="#072146"/>
<path d="M18 8C19.1046 8 20 7.10457 20 6C20 4.89543 19.1046 4 18 4C16.8954 4 16 4.89543 16 6C16 7.10457 16.8954 8 18 8Z" fill="#072146"/>
</svg>
