<svg xmlns="http://www.w3.org/2000/svg">
  <symbol id="components" viewBox="0 0 24 24" fill="currentcolor">
    <path fill-rule="evenodd" clip-rule="evenodd" d="M4 3C3.44772 3 3 3.44772 3 4V20C3 20.5523 3.44772 21 4 21H20C20.5523 21 21 20.5523 21 20V4C21 3.44772 20.5523 3 20 3H4ZM19 5H5V19H19V5Z"/>
    <circle cx="9" cy="9" r="2"/>
    <circle cx="9" cy="15" r="2"/>
    <circle cx="15" cy="9" r="2"/>
    <circle cx="15" cy="15" r="2"/>
    <path fill-rule="evenodd" clip-rule="evenodd" d="M9 2C9 1.44772 9.44772 1 10 1H14C14.5523 1 15 1.44772 15 2V3H9V2Z"/>
    <path fill-rule="evenodd" clip-rule="evenodd" d="M15 22C15 22.5523 14.5523 23 14 23L10 23C9.44772 23 9 22.5523 9 22L9 21L15 21L15 22Z"/>
    <path fill-rule="evenodd" clip-rule="evenodd" d="M3 9L3 15L2 15C1.44772 15 1 14.5523 1 14L1 10C1 9.44772 1.44772 9 2 9L3 9Z"/>
    <path fill-rule="evenodd" clip-rule="evenodd" d="M21 15L21 9L22 9C22.5523 9 23 9.44772 23 10L23 14C23 14.5523 22.5523 15 22 15L21 15Z"/>
  </symbol>
</svg>