<svg xmlns="http://www.w3.org/2000/svg">
  <symbol id="routing" viewBox="0 0 24 24" fill="currentcolor">
    <path d="M13.5858 2C13.851 2 14.1054 2.10536 14.2929 2.29289L17.7071 5.70711C17.8946 5.89464 18 6.149 18 6.41421V8V11H16V8H13C12.4477 8 12 7.55228 12 7V4H5V20H16V17H18V21C18 21.5523 17.5523 22 17 22H4C3.44772 22 3 21.5523 3 21V3C3 2.44772 3.44772 2 4 2H12H13.5858ZM18 13V15H16V13H18Z" />
    <path d="M20.1464 10.8535C20.3417 10.6583 20.6583 10.6583 20.8536 10.8535L23.6464 13.6464C23.8417 13.8417 23.8417 14.1583 23.6464 14.3535L20.8536 17.1464C20.7598 17.2402 20.6326 17.2929 20.5 17.2929C20.2239 17.2929 20 17.069 20 16.7929V15H10V13H20V11.2071C20 11.0745 20.0527 10.9473 20.1464 10.8535Z" />
    <rect x="7" y="6" width="2" height="2" />
  </symbol>
</svg>
