<svg xmlns="http://www.w3.org/2000/svg">
  <symbol id="opportunities" viewBox="0 0 24 24" fill="currentcolor">
    <path fill-rule="evenodd" d="M14 16H6c-1.10457 0-2 .8954-2 2v2h10v2H3c-.55228 0-1-.4477-1-1v-3c0-2.2091 1.79086-4 4-4h8v2Z" clip-rule="evenodd"/>
    <path d="M18.7622 14.7318c.0749-.2304.4007-.2304.4756 0l.8286 2.5504c.0335.103.1295.1727.2378.1727h2.6817c.2421 0 .3428.3099.1469.4523l-2.1695 1.5762c-.0876.0637-.1243.1765-.0908.2795l.8287 2.5504c.0748.2303-.1888.4219-.3847.2795l-2.1696-1.5762c-.0876-.0637-.2062-.0637-.2938 0l-2.1696 1.5762c-.1959.1424-.4595-.0492-.3847-.2795l.8287-2.5504c.0335-.103-.0032-.2158-.0908-.2795l-2.1695-1.5762c-.1959-.1424-.0952-.4523.1469-.4523h2.6817c.1083 0 .2043-.0697.2378-.1727l.8286-2.5504Z"/>
    <circle cx="12" cy="7" r="4" fill="none" stroke="currentcolor" stroke-width="2"/>
  </symbol>
</svg>