<svg xmlns="http://www.w3.org/2000/svg" fill="none" viewBox="0 0 209 45">
  <path fill="#2DCCCD" d="M60.264 40.4265c-2.674 0-4.592-1.904-4.592-5.404 0-3.402 1.946-5.348 4.494-5.348 1.96 0 3.178.854 3.892 2.394l-1.484.882c-.406-.966-1.162-1.666-2.408-1.666-1.764 0-2.744 1.456-2.744 3.724 0 2.394 1.036 3.85 2.842 3.85 1.288 0 2.128-.77 2.534-1.932l1.512.686c-.616 1.708-1.876 2.814-4.046 2.814Zm7.3635-.196h-1.722v-7.42h1.582l.14 1.204h.014c.448-.7 1.232-1.358 2.618-1.358h.07l.154 1.582c-.112-.028-.336-.028-.448-.028-1.134 0-1.932.518-2.408 1.316v4.704Zm6.8983.154c-1.918 0-3.64-1.134-3.64-3.864 0-2.786 2.002-3.864 3.542-3.864 1.61 0 3.262.994 3.262 4.018v.406h-5.082c.056 1.302.896 1.932 2.016 1.932.924 0 1.722-.392 2.296-.952l.686 1.134c-.84.798-1.806 1.19-3.08 1.19Zm-1.904-4.578h3.486c-.084-1.092-.658-1.75-1.694-1.75-.854 0-1.624.56-1.792 1.75Zm8.7447 3.206c.882 0 1.582-.322 2.114-.854v-1.638c-2.394.336-3.164.854-3.164 1.596 0 .588.406.896 1.05.896Zm-.616 1.33c-1.218 0-2.114-.728-2.114-1.946 0-1.638 1.372-2.646 4.844-3.038v-.224c0-.686-.406-1.064-1.288-1.064-.966 0-1.708.42-2.394.994l-.938-1.05c.784-.728 1.848-1.358 3.556-1.358 1.918 0 2.744.952 2.744 2.688v4.886h-1.54l-.14-.952c-.714.728-1.624 1.064-2.73 1.064Zm9.12-.014c-1.568 0-2.282-.532-2.282-2.142v-4.018h-1.26v-1.358h1.26v-2.478l1.708-.252v2.73h1.918v1.358h-1.918v3.752c0 .798.336 1.05 1.036 1.05.28 0 .546-.056.756-.112l.14 1.358c-.21.042-.896.112-1.358.112Zm3.7011-8.624c-.63 0-.98-.392-.98-.91s.35-.91.98-.91c.644 0 1.008.392 1.008.91s-.364.91-1.008.91Zm.868 8.526h-1.708v-7.42h1.708v7.42Zm3.7445 0h-1.722v-7.42h1.582l.14 1.05c.546-.616 1.442-1.204 2.6739-1.204 1.344 0 2.184.7 2.184 2.17v5.404h-1.708v-4.9c0-.826-.336-1.246-1.134-1.246-.7419 0-1.3719.378-2.0159.966v5.18Zm9.5559-3.458c.938 0 1.498-.49 1.498-1.4 0-.924-.532-1.428-1.512-1.428-.952 0-1.512.518-1.512 1.428 0 .91.574 1.4 1.526 1.4Zm-.042 6.342c-2.562 0-3.584-.742-3.584-1.82 0-.742.462-1.274 1.218-1.568-.378-.196-.574-.504-.574-.91 0-.56.448-1.022 1.008-1.358-.756-.476-1.176-1.232-1.176-2.142 0-1.526 1.176-2.66 3.122-2.66 1.022 0 1.778.336 2.282.784.448-.364 1.12-.672 1.694-.728l.224 1.386c-.35 0-.854.042-1.372.21.168.266.266.616.266 1.008 0 1.554-1.162 2.646-3.094 2.646-.42 0-.672-.056-1.036-.154-.224.126-.378.28-.378.476 0 .294.196.392.854.448l1.316.084c2.198.14 3.066.728 3.066 2.03 0 1.526-1.54 2.268-3.836 2.268Zm.266-1.246c1.26 0 2.044-.336 2.044-.868s-.378-.728-1.89-.826l-1.288-.084c-.154 0-.294-.014-.448-.042-.49.224-.686.574-.686.952 0 .658.756.868 2.268.868Zm13.155-1.442c-2.506 0-4.676-1.89-4.676-5.376 0-3.486 2.17-5.376 4.676-5.376 2.492 0 4.662 1.89 4.662 5.376 0 3.486-2.17 5.376-4.662 5.376Zm0-1.568c1.75 0 2.926-1.456 2.926-3.808s-1.176-3.766-2.926-3.766c-1.75 0-2.926 1.414-2.926 3.766 0 2.352 1.176 3.808 2.926 3.808Zm9.729.126c1.064 0 1.75-.742 1.75-2.464 0-1.54-.672-2.394-1.778-2.394-.714 0-1.288.392-1.806.924v3.038c.602.588 1.12.896 1.834.896Zm-1.834 3.92-1.722.252v-10.346h1.582l.14.966c.504-.616 1.26-1.12 2.366-1.12 1.694 0 2.94 1.274 2.94 3.85s-1.26 3.836-2.968 3.836c-1.008 0-1.778-.308-2.338-.924v3.486Zm10.393-3.92c1.064 0 1.75-.742 1.75-2.464 0-1.54-.672-2.394-1.778-2.394-.714 0-1.288.392-1.806.924v3.038c.602.588 1.12.896 1.834.896Zm-1.834 3.92-1.722.252v-10.346h1.582l.14.966c.504-.616 1.26-1.12 2.366-1.12 1.694 0 2.94 1.274 2.94 3.85s-1.26 3.836-2.968 3.836c-1.008 0-1.778-.308-2.338-.924v3.486Zm10.042-2.52c-1.806 0-3.626-1.148-3.626-3.864 0-2.73 1.806-3.864 3.626-3.864 1.806 0 3.612 1.134 3.612 3.864 0 2.716-1.806 3.864-3.612 3.864Zm0-1.442c1.246 0 1.904-.994 1.904-2.408 0-1.372-.602-2.408-1.904-2.408-1.246 0-1.904.938-1.904 2.408 0 1.414.574 2.408 1.904 2.408Zm6.856 1.288h-1.722v-7.42h1.582l.14 1.204h.014c.448-.7 1.232-1.358 2.618-1.358h.07l.154 1.582c-.112-.028-.336-.028-.448-.028-1.134 0-1.932.518-2.408 1.316v4.704Zm6.876.098c-1.568 0-2.282-.532-2.282-2.142v-4.018h-1.26v-1.358h1.26v-2.478l1.708-.252v2.73h1.918v1.358h-1.918v3.752c0 .798.336 1.05 1.036 1.05.28 0 .546-.056.756-.112l.14 1.358c-.21.042-.896.112-1.358.112Zm4.905.056c-1.358 0-2.198-.7-2.198-2.17v-5.404h1.722v4.942c0 .784.322 1.176 1.12 1.176.742 0 1.372-.392 2.016-.98v-5.138h1.722v7.42h-1.582l-.14-1.036c-.546.588-1.442 1.19-2.66 1.19Zm8.03-.154h-1.722v-7.42h1.582l.14 1.05c.546-.616 1.442-1.204 2.674-1.204 1.344 0 2.184.7 2.184 2.17v5.404h-1.708v-4.9c0-.826-.336-1.246-1.134-1.246-.742 0-1.372.378-2.016.966v5.18Zm7.637-8.526c-.63 0-.98-.392-.98-.91s.35-.91.98-.91c.644 0 1.008.392 1.008.91s-.364.91-1.008.91Zm.868 8.526h-1.708v-7.42h1.708v7.42Zm4.865.098c-1.568 0-2.282-.532-2.282-2.142v-4.018h-1.26v-1.358h1.26v-2.478l1.708-.252v2.73h1.918v1.358h-1.918v3.752c0 .798.336 1.05 1.036 1.05.28 0 .546-.056.756-.112l.14 1.358c-.21.042-.896.112-1.358.112Zm3.701-8.624c-.63 0-.98-.392-.98-.91s.35-.91.98-.91c.644 0 1.008.392 1.008.91s-.364.91-1.008.91Zm.868 8.526h-1.708v-7.42h1.708v7.42Zm5.242.154c-1.918 0-3.64-1.134-3.64-3.864 0-2.786 2.002-3.864 3.542-3.864 1.61 0 3.262.994 3.262 4.018v.406h-5.082c.056 1.302.896 1.932 2.016 1.932.924 0 1.722-.392 2.296-.952l.686 1.134c-.84.798-1.806 1.19-3.08 1.19Zm-1.904-4.578h3.486c-.084-1.092-.658-1.75-1.694-1.75-.854 0-1.624.56-1.792 1.75Zm9.152 4.564c-1.428 0-2.492-.532-3.206-1.162l.658-1.162c.672.574 1.596 1.008 2.562 1.008.924 0 1.484-.294 1.484-.812 0-.602-.434-.812-1.666-1.064-1.568-.322-2.772-.742-2.772-2.338 0-1.316 1.092-2.184 2.73-2.184 1.33 0 2.226.378 3.01.938l-.602 1.218c-.7-.504-1.484-.798-2.282-.798-.84 0-1.246.308-1.246.756 0 .49.406.714 1.512.952 1.666.336 2.94.728 2.94 2.296 0 1.624-1.414 2.352-3.122 2.352Z"/>
  <path fill="#fff" d="M55.8996 2.80827 49.0944 15.7639c-.1424.2847-.5695.2847-.7119 0L41.5631 2.80827c-.0712-.12813-.1994-.21354-.356-.21354h-3.2887c-.2278 0-.3701.24202-.2562.44134L48.3968 23.1101c.1424.2705.541.2705.6976 0L59.829 3.03607c.0997-.19932-.0427-.44134-.2562-.44134h-3.303c-.1424 0-.2847.08541-.3559.21354M59.746 20.5047l6.8053-12.95558c.1423-.28474.5694-.28474.7118 0l6.8195 12.95558c.0712.1281.1993.2136.3559.2136h3.2887c.2278 0 .3702-.2421.2563-.4414L67.2489.202876c-.1424-.2705013-.541-.2705013-.6976 0L55.8166 20.2769c-.0996.1993.0428.4414.2563.4414h3.303c.1423 0 .2847-.0855.3559-.2136m-49.4687.4018H3.94397c-.21993 0-.41053-.176-.41053-.4106v-5.674c0-.2199.17594-.4105.41053-.4105h6.31913c3.0056 0 4.3545.8504 4.3545 3.2402s-1.3196 3.2402-4.3545 3.2402M3.94397 5.7464h6.23113c2.3019 0 3.4748.98233 3.4748 2.80037 0 1.81803-1.1729 2.80033-3.4748 2.80033H3.94397c-.21993 0-.41053-.1759-.41053-.4105V6.15693c0-.21993.17594-.41053.41053-.41053Zm10.84953 6.759c1.4662-.7331 2.3752-2.3165 2.3752-4.26651 0-3.32818-2.5951-5.58606-6.2458-5.58606H.410522C.190599 2.65283 0 2.82877 0 3.06335V23.5896c0 .2199.175937.4105.410522.4105H10.4537c5.0289 0 7.6827-2.1699 7.6827-6.4071s-3.3429-5.0876-3.3429-5.0876Zm15.5785 8.343h-6.3191c-.22 0-.4106-.176-.4106-.4106v-5.674c0-.2199.176-.4105.4106-.4105h6.3191c3.0056 0 4.3545.8503 4.3545 3.2402 0 2.3898-1.3196 3.2402-4.3545 3.2402M24.0529 5.6883h6.2311c2.3019 0 3.4748.98233 3.4748 2.80036 0 1.81804-1.1729 2.80034-3.4748 2.80034h-6.2311c-.22 0-.4106-.1759-.4106-.4105V6.09882c0-.21993.176-.41052.4106-.41052Zm10.8495 6.759c1.4662-.7331 2.3752-2.3165 2.3752-4.26652 0-3.32818-2.5951-5.58605-6.2458-5.58605H20.5194c-.2199 0-.4105.17593-.4105.41052V23.5314c0 .22.1759.4106.4105.4106h10.0432c5.0289 0 7.6827-2.1699 7.6827-6.4071s-3.3429-5.0876-3.3429-5.0876Z"/>
</svg>
